<?xml version="1.0" encoding="UTF-8" standalone="no"?>
<svg
   xmlns:dc="http://purl.org/dc/elements/1.1/"
   xmlns:cc="http://creativecommons.org/ns#"
   xmlns:rdf="http://www.w3.org/1999/02/22-rdf-syntax-ns#"
   xmlns:svg="http://www.w3.org/2000/svg"
   xmlns="http://www.w3.org/2000/svg"
   xmlns:sodipodi="http://sodipodi.sourceforge.net/DTD/sodipodi-0.dtd"
   xmlns:inkscape="http://www.inkscape.org/namespaces/inkscape"
   id="_280_smiley_face_outline"
   data-name="#280_smiley_face_outline"
   viewBox="0 0 121.90899 124.8945"
   width="123.73763"
   height="127.39239"
   class="illustration styles_illustrationTablet__1DWOa"
   version="1.1"
   sodipodi:docname="avatar.svg"
   inkscape:version="1.0 (4035a4f, 2020-05-01)">
  <metadata
     id="metadata880">
    <rdf:RDF>
      <cc:Work
         rdf:about="">
        <dc:format>image/svg+xml</dc:format>
        <dc:type
           rdf:resource="http://purl.org/dc/dcmitype/StillImage" />
      </cc:Work>
    </rdf:RDF>
  </metadata>
  <defs
     id="defs878" />
  <sodipodi:namedview
     inkscape:document-rotation="0"
     pagecolor="#ffffff"
     bordercolor="#666666"
     borderopacity="1"
     objecttolerance="10"
     gridtolerance="10"
     guidetolerance="10"
     inkscape:pageopacity="0"
     inkscape:pageshadow="2"
     inkscape:window-width="1680"
     inkscape:window-height="959"
     id="namedview876"
     showgrid="false"
     inkscape:zoom="3.5073892"
     inkscape:cx="53.502213"
     inkscape:cy="62.495858"
     inkscape:window-x="0"
     inkscape:window-y="23"
     inkscape:window-maximized="1"
     inkscape:current-layer="_280_smiley_face_outline" />
  <path
     style="stroke-width:0.699998"
     d="M 121.20478,64.121362 A 60.199834,60.199834 0 0 1 27.748035,114.39522 58.533839,58.533839 0 0 1 22.04305,110.11823 60.248834,60.248834 0 0 1 34.356016,10.067511 v 0 A 60.374834,60.374834 0 0 1 81.185887,7.372518 c 0,0 0,0 0,0 a 60.255834,60.255834 0 0 1 40.018893,56.748844 z"
     fill="#ffffff"
     id="path833" />
  <path
     style="stroke-width:0.699998"
     d="M 60.955943,125.07019 A 60.661833,60.661833 0 0 1 27.356036,114.98322 59.723835,59.723835 0 0 1 21.581052,110.65023 60.941832,60.941832 0 0 1 33.992017,9.4655122 h 0.056 a 61.081832,61.081832 0 0 1 47.37587,-2.7229925 v 0 c 0,0 0,0 0.056,0 A 60.941832,60.941832 0 0 1 60.955943,125.07019 Z M 34.713015,10.662509 l -0.056,0.035 A 59.541836,59.541836 0 1 0 80.968888,8.0305162 h -0.056 A 59.702835,59.702835 0 0 0 34.713015,10.683509 Z"
     fill="#093f68"
     id="path835" />
  <rect
     style="stroke-width:0.699998;fill:#eb6e64;fill-opacity:1"
     x="56.566952"
     y="71.401337"
     width="8.6799755"
     height="11.360969"
     fill="#ffbc0e"
     id="rect837" />
  <path
     style="stroke-width:0.699998"
     d="M 65.246931,83.469308 H 56.566955 A 0.69999807,0.69999807 0 0 1 55.866957,82.76931 V 71.415341 a 0.69999807,0.69999807 0 0 1 0.699998,-0.699998 h 8.679976 a 0.69999807,0.69999807 0 0 1 0.699998,0.699998 V 82.78331 a 0.69999807,0.69999807 0 0 1 -0.699998,0.685998 z m -7.979978,-1.399996 h 7.27998 v -9.953973 h -7.27998 z"
     fill="#093f68"
     id="path839" />
  <path
     style="stroke-width:0.699998"
     d="m 94.163851,105.26025 v 9.13497 a 60.199834,60.199834 0 0 1 -66.415816,0 v -9.13497 a 31.149914,31.149914 0 0 1 1.007997,-8.04298 C 31.619024,86.3603 40.131,78.478322 50.189973,78.478322 h 21.47594 c 12.438966,0 22.497938,11.990967 22.497938,26.781928 z"
     fill="#68e1fd"
     id="path841" />
  <path
     style="stroke-width:0.699998"
     d="m 60.955943,125.07019 a 60.661833,60.661833 0 0 1 -33.599907,-10.08697 0.69999807,0.69999807 0 0 1 -0.314999,-0.588 v -9.13497 a 32.122911,32.122911 0 0 1 1.056997,-8.224979 C 31.136025,85.520303 39.998001,77.778324 50.210973,77.778324 h 21.47594 c 12.774965,0 23.169937,12.326966 23.169937,27.481926 v 9.13497 a 0.69999807,0.69999807 0 0 1 -0.315,0.588 60.661833,60.661833 0 0 1 -33.599907,10.08697 z m -32.50791,-11.05297 a 59.499836,59.499836 0 0 0 65.01582,0 v -8.75697 c 0,-14.384962 -9.764973,-26.08193 -21.76994,-26.08193 h -21.47594 c -9.540974,0 -17.884951,7.32198 -20.754943,18.19995 a 30.526916,30.526916 0 0 0 -1.014997,7.86098 z m 65.715818,0.378 z"
     fill="#093f68"
     id="path843" />
  <path
     style="stroke-width:0.699998"
     d="M 40.809999,121.6122 A 0.69999807,0.69999807 0 0 1 40.11,120.9122 V 99.128265 a 0.6999985,0.6999985 0 0 1 1.399997,0 V 120.9122 a 0.69999807,0.69999807 0 0 1 -0.699998,0.7 z"
     fill="#093f68"
     id="path845" />
  <path
     style="stroke-width:0.699998"
     d="m 81.101887,121.6122 a 0.69999807,0.69999807 0 0 1 -0.699998,-0.7 V 99.128265 a 0.6999985,0.6999985 0 0 1 1.399997,0 V 120.9122 a 0.69999807,0.69999807 0 0 1 -0.699999,0.7 z"
     fill="#093f68"
     id="path847" />
  <polygon
     transform="matrix(0.69999807,0,0,0.69999807,-79.043671,-42.684344)"
     points="189.89,173.09 210.11,173.09 200,206.07 "
     fill="#093f68"
     id="polygon849" />
  <path
     style="stroke-width:0.699998"
     d="m 60.955943,102.26426 a 0.69999807,0.69999807 0 0 1 -0.699998,-0.497 L 53.185964,78.667321 a 0.69999807,0.69999807 0 0 1 0.105,-0.615998 0.69999807,0.69999807 0 0 1 0.559999,-0.286999 h 14.153961 a 0.69999807,0.69999807 0 0 1 0.559998,0.286999 0.69999807,0.69999807 0 0 1 0.105,0.615998 l -7.069981,23.099939 a 0.69999807,0.69999807 0 0 1 -0.643998,0.497 z M 54.83096,79.16432 60.955943,99.177265 67.080926,79.17832 Z"
     fill="#093f68"
     id="path851" />
  <path
     style="fill:#eb6e64;fill-opacity:1;stroke-width:0.699998"
     d="m 40.809999,120.82821 v 0.084 A 59.625836,59.625836 0 0 1 27.748035,114.39522 58.533839,58.533839 0 0 1 22.04305,110.11823 L 15.617068,93.164281 c 0,0 -5.214986,-5.599984 -4.899986,-9.750973 0.314999,-4.150988 4.682987,-7.699978 6.649981,-6.859981 1.168997,0.510999 4.829987,8.462977 4.829987,8.462977 1.812995,-6.355983 3.41599,-6.152983 4.605987,-5.039986 1.189997,1.112997 -1.819995,10.296971 -1.819995,10.296971 l 3.83599,6.943981 11.080969,20.06894 a 7.1469803,7.1469803 0 0 1 0.909998,3.542 z"
     fill="#ffbc0e"
     id="path853" />
  <path
     style="stroke-width:0.699998"
     d="m 40.809999,121.6122 a 0.69999807,0.69999807 0 0 1 -0.238,-0.035 60.661833,60.661833 0 0 1 -13.215963,-6.59398 59.723835,59.723835 0 0 1 -5.774984,-4.33299 0.74899793,0.74899793 0 0 1 -0.196,-0.287 L 15.00107,93.56328 C 14.259072,92.737283 9.6950843,87.522297 9.9750836,83.385308 a 9.414974,9.414974 0 0 1 4.3469884,-6.880981 c 1.245996,-0.748998 2.407993,-0.951997 3.282991,-0.573998 1.028997,0.447999 2.981991,4.199988 4.416987,7.18198 0.923998,-2.673992 1.875995,-4.031989 3.016992,-4.346988 a 2.2679937,2.2679937 0 0 1 2.197994,0.699998 C 28.497032,80.655316 26.859037,86.5703 25.69704,90.20329 l 14.769959,26.73993 a 7.8679783,7.8679783 0 0 1 1.035998,3.88499 v 0.084 a 0.69999807,0.69999807 0 0 1 -0.699998,0.7 z m -18.19995,-11.89996 a 58.19784,58.19784 0 0 0 5.494985,4.11598 59.072837,59.072837 0 0 0 11.899967,6.07599 6.537982,6.537982 0 0 0 -0.748998,-2.289 L 24.332044,90.595289 a 0.69999807,0.69999807 0 0 1 -0.049,-0.552999 c 1.301997,-4.024989 2.407993,-8.847976 1.973995,-9.603973 -0.496999,-0.454999 -0.755998,-0.384999 -0.839998,-0.363999 -0.363999,0.104999 -1.350996,0.804997 -2.582993,5.123985 a 0.69999807,0.69999807 0 0 1 -1.308996,0.098 c -1.651996,-3.58399 -3.83599,-7.699979 -4.493988,-8.126977 a 2.540993,2.540993 0 0 0 -1.973994,0.503998 7.8679783,7.8679783 0 0 0 -3.67499,5.774984 c -0.259,3.80099 4.696987,9.176975 4.745987,9.225975 a 0.80499778,0.80499778 0 0 1 0.146999,0.230999 z"
     fill="#093f68"
     id="path855" />
  <circle
     style="stroke-width:0.699998;fill:#eb6e64;fill-opacity:1"
     cx="59.415951"
     cy="37.199436"
     r="36.9389"
     fill="#ffbc0e"
     id="circle857" />
  <path
     style="stroke-width:0.699998"
     d="M 59.415947,74.838332 A 37.638896,37.638896 0 1 1 97.054843,37.199436 37.680896,37.680896 0 0 1 59.415947,74.838332 Z m 0,-73.87779634 A 36.2389,36.2389 0 1 0 95.654847,37.199436 36.2739,36.2739 0 0 0 59.415947,0.96053566 Z"
     fill="#093f68"
     id="path859" />
  <ellipse
     style="stroke-width:0.699998"
     cx="48.873981"
     cy="26.972466"
     rx="4.8369865"
     ry="5.963984"
     fill="#093f68"
     id="ellipse861" />
  <ellipse
     style="stroke-width:0.699998"
     cx="69.957916"
     cy="26.972466"
     rx="4.8369865"
     ry="5.963984"
     fill="#093f68"
     id="ellipse863" />
  <path
     style="stroke-width:0.699998;fill:#eb6e64;fill-opacity:1"
     d="m 34.685015,40.839426 a 25.24193,25.24193 0 0 0 49.461864,0"
     fill="#ffbc0e"
     id="path865" />
  <path
     style="stroke-width:0.699998"
     d="m 59.415947,62.077367 a 26.354927,26.354927 0 0 1 -25.759929,-20.999942 1.0502074,1.0502074 0 0 1 2.057995,-0.419999 24.191933,24.191933 0 0 0 47.403869,0 1.0502071,1.0502071 0 0 1 2.057994,0.419999 26.368927,26.368927 0 0 1 -25.759929,20.999942 z"
     fill="#093f68"
     id="path867" />
  <path
     style="stroke-width:0.699998"
     d="m 18.62006,90.973287 a 0.69999807,0.69999807 0 0 1 -0.699998,-0.517998 c -0.580999,-2.099994 -0.405999,-3.70299 0.517998,-4.794987 1.322997,-1.574996 3.66799,-1.350996 3.76599,-1.336996 a 0.70348938,0.70348938 0 1 1 -0.14,1.399996 v 0 c 0,0 -1.714995,-0.154 -2.561993,0.853998 -0.601998,0.699998 -0.699998,1.896994 -0.230999,3.49999 a 0.69999807,0.69999807 0 0 1 -0.489999,0.860998 0.88899755,0.88899755 0 0 1 -0.160999,0.035 z"
     fill="#093f68"
     id="path869" />
  <path
     style="stroke-width:0.699998"
     d="m 60.955943,125.07019 a 0.69999807,0.69999807 0 0 1 -0.699998,-0.69999 v -22.80594 a 0.69999807,0.69999807 0 0 1 1.399996,0 v 22.80594 a 0.69999807,0.69999807 0 0 1 -0.699998,0.69999 z"
     fill="#093f68"
     id="path871" />
  <path
     style="stroke-width:0.699998"
     d="m 72.554911,116.76822 a 0.69999807,0.69999807 0 0 1 -0.384999,-0.112 l -4.521987,-2.968 a 0.69999807,0.69999807 0 0 1 -0.315,-0.58099 v -9.04398 a 0.69999807,0.69999807 0 0 1 0.699998,-0.7 h 9.022976 a 0.69999807,0.69999807 0 0 1 0.699998,0.7 v 9.04398 a 0.69999807,0.69999807 0 0 1 -0.314999,0.58099 l -4.521988,2.968 a 0.69999807,0.69999807 0 0 1 -0.363999,0.112 z m -3.821989,-4.05299 3.821989,2.50599 3.80099,-2.50599 v -7.95198 h -7.622979 z m 8.336977,0.378 z"
     fill="#093f68"
     id="path873" />
</svg>
