<svg id="Layer_1" data-name="Layer 1" xmlns="http://www.w3.org/2000/svg" xmlns:xlink="http://www.w3.org/1999/xlink" viewBox="0 0 680.91 513.59" width="406" height="306" class="illustration styles_illustrationTablet__1DWOa"><defs><linearGradient id="linear-gradient" x1="526.91" y1="272.08" x2="138.91" y2="716.09" gradientUnits="userSpaceOnUse"><stop offset="0" stop-color="#010101" stop-opacity="0"></stop><stop offset="0.95" stop-color="#010101"></stop></linearGradient><linearGradient id="linear-gradient-2" x1="431.07" y1="404.68" x2="396.23" y2="357.41" xlink:href="#linear-gradient"></linearGradient><linearGradient id="linear-gradient-3" x1="172.31" y1="443.57" x2="285.74" y2="550.21" gradientUnits="userSpaceOnUse"><stop offset="0" stop-color="#fff" stop-opacity="0"></stop><stop offset="0.95" stop-color="#fff"></stop></linearGradient><linearGradient id="linear-gradient-4" x1="350.69" y1="146.82" x2="337.73" y2="176.06" xlink:href="#linear-gradient"></linearGradient><linearGradient id="linear-gradient-5" x1="289.2" y1="96.21" x2="287.45" y2="125.1" xlink:href="#linear-gradient"></linearGradient><linearGradient id="linear-gradient-6" x1="411.28" y1="342.2" x2="427.08" y2="342.2" gradientUnits="userSpaceOnUse"><stop offset="0" stop-color="#e5c6d6"></stop><stop offset="0.42" stop-color="#ead4d0"></stop><stop offset="1" stop-color="#f0e9cb"></stop></linearGradient><linearGradient id="linear-gradient-7" x1="399.27" y1="368.15" x2="431.83" y2="368.15" xlink:href="#linear-gradient"></linearGradient><linearGradient id="linear-gradient-8" x1="434.21" y1="310.79" x2="441.09" y2="310.79" xlink:href="#linear-gradient-6"></linearGradient><linearGradient id="linear-gradient-9" x1="429.33" y1="350.23" x2="397.25" y2="361.9" xlink:href="#linear-gradient"></linearGradient><linearGradient id="linear-gradient-10" x1="436.36" y1="341.63" x2="563.5" y2="374.11" xlink:href="#linear-gradient"></linearGradient><linearGradient id="linear-gradient-11" x1="413.19" y1="346.27" x2="458.39" y2="346.27" xlink:href="#linear-gradient-6"></linearGradient><linearGradient id="linear-gradient-12" x1="409.14" y1="314.2" x2="363.18" y2="249.12" xlink:href="#linear-gradient"></linearGradient><linearGradient id="linear-gradient-13" x1="435.4" y1="299.15" x2="420.94" y2="305.52" xlink:href="#linear-gradient-6"></linearGradient><linearGradient id="linear-gradient-14" x1="413.65" y1="347.92" x2="421.18" y2="347.92" xlink:href="#linear-gradient-6"></linearGradient></defs><title>Code Python</title><path d="M298,558.86c-40.55.86-81.63,1.56-121.07-8a204.64,204.64,0,0,1-26.6-8.47c-17.57-6.82-34.36-15.78-50.48-25.7-41.73-25.63-71.5-66.87-86.21-113.27C-7.42,337,2.07,263.62,33.14,201.92c26-51.72,66.56-101.07,116.91-130.6C206.77,38.06,281.91,41.3,343.68,58c20.79,5.63,40.84,13.85,61.79,18.9,41.89,10.11,85.7,7.21,128.68,4,15-1.11,30.18-2.22,44.76,1.24,30.28,7.17,55.28,42.39,70.45,67.62A239.82,239.82,0,0,1,683.26,257" transform="translate(-2.35 -45.74)" fill="#EB6E64" opacity="0.24" style="isolation: isolate;"></path><path d="M682,301c-5.65,46.25-24.48,92.08-53.83,127.11C589.29,474.51,523.57,511.31,468,532.67a358.1,358.1,0,0,1-65.85,18.54c-34.33,6.12-69.33,6.94-104.14,7.65" transform="translate(-2.35 -45.74)" fill="#EB6E64" opacity="0.24" style="isolation: isolate;"></path><path d="M613.72,242.91V363.16a31.6,31.6,0,0,1-31.61,31.61H457.68A31.53,31.53,0,0,1,426,363.16V242.91a31.63,31.63,0,0,1,31.64-31.64H582.11A31.63,31.63,0,0,1,613.72,242.91Z" transform="translate(-2.35 -45.74)" fill="#fff"></path><g opacity="0.24" style="isolation: isolate;"><rect x="454.58" y="195.19" width="47.2" height="3.46" fill="#EB6E64"></rect><rect x="454.58" y="201.88" width="28.81" height="3.25" fill="#EB6E64"></rect><rect x="495.01" y="201.88" width="90.67" height="3.27" fill="#EB6E64"></rect><rect x="469.56" y="208.6" width="39.62" height="3.43" fill="#EB6E64"></rect><rect x="482.28" y="215.3" width="47.2" height="3.46" fill="#EB6E64"></rect><rect x="532.56" y="215.3" width="39.57" height="3.85" fill="#EB6E64"></rect><rect x="482.21" y="222" width="36.45" height="3.25" fill="#EB6E64"></rect><rect x="522.16" y="222" width="75.22" height="3.6" fill="#EB6E64"></rect><rect x="454.58" y="231.06" width="47.2" height="3.46" fill="#EB6E64"></rect><rect x="454.58" y="237.76" width="28.81" height="3.25" fill="#EB6E64"></rect><rect x="495.01" y="237.76" width="90.67" height="3.27" fill="#EB6E64"></rect><rect x="469.56" y="244.46" width="39.62" height="3.43" fill="#EB6E64"></rect><rect x="482.28" y="251.18" width="47.2" height="3.46" fill="#EB6E64"></rect><rect x="532.56" y="251.18" width="39.57" height="3.85" fill="#EB6E64"></rect><rect x="482.21" y="257.88" width="36.45" height="3.25" fill="#EB6E64"></rect><rect x="522.16" y="257.88" width="75.22" height="3.6" fill="#EB6E64"></rect><rect x="454.58" y="266.94" width="47.2" height="3.46" fill="#EB6E64"></rect><rect x="454.58" y="273.64" width="28.81" height="3.25" fill="#EB6E64"></rect><rect x="495.01" y="273.64" width="90.67" height="3.27" fill="#EB6E64"></rect><rect x="469.56" y="280.34" width="39.62" height="3.43" fill="#EB6E64"></rect><rect x="482.28" y="287.04" width="47.2" height="3.46" fill="#EB6E64"></rect><rect x="532.56" y="287.04" width="39.57" height="3.85" fill="#EB6E64"></rect><rect x="482.21" y="293.75" width="36.45" height="3.25" fill="#EB6E64"></rect><rect x="522.16" y="293.75" width="75.22" height="3.6" fill="#EB6E64"></rect></g><path d="M542.3,362.68V381a112.54,112.54,0,0,1-.85,13.81H457.68a31.7,31.7,0,0,1-24.55-11.61,5.38,5.38,0,0,0,.45-2.2V362.68a5.81,5.81,0,0,0-5.78-5.78H426V248.17h1.76A114.65,114.65,0,0,1,542.3,362.68Z" transform="translate(-2.35 -45.74)" fill="url(#linear-gradient)"></path><path d="M298,558.86c-40.55.86-81.63,1.56-121.07-8a204.64,204.64,0,0,1-26.6-8.47,113.84,113.84,0,0,1-5-33.46c0-1.53,0-3,.11-4.56A114.43,114.43,0,0,1,259.86,394.43H412.39a5.81,5.81,0,0,0,5.78-5.78V370.36a5.81,5.81,0,0,0-5.78-5.78H247a114.62,114.62,0,0,1-114.5-114.51v-9.66A114.64,114.64,0,0,1,247,125.91h39.74a54.36,54.36,0,1,1,0,108.72H247a5.78,5.78,0,0,0-5.78,5.78v9.66a5.79,5.79,0,0,0,5.78,5.79H412.39a114.64,114.64,0,0,1,114.5,114.5v18.29a114.64,114.64,0,0,1-114.5,114.5H259.86a5.79,5.79,0,1,0,0,11.57h146.6A113.75,113.75,0,0,1,468,532.67a358.1,358.1,0,0,1-65.85,18.54c-34.33,6.12-69.33,6.94-104.14,7.65" transform="translate(-2.35 -45.74)" fill="#EB6E64"></path><path d="M466.51,375.47c1.59,4.15-1.56,8.58-5,11.43-10.56,8.84-25,11.79-38.73,11.73-3.91,0-8.3-.08-11.11,2.64a10.72,10.72,0,0,0-2.47,4.18c-2.81,7.81-1.09,16.66-3.71,24.54a10.21,10.21,0,0,1-3.11,5,4.93,4.93,0,0,1-5.55.57c-2.31-1.48-2.34-4.78-2.11-7.52l1-12.5c.61-7.3,1.46-15.19,6.41-20.6,3-3.24,7.06-5.17,11.05-7C420.46,384.55,461.14,361.45,466.51,375.47Z" transform="translate(-2.35 -45.74)" fill="url(#linear-gradient-2)"></path><path d="M222.07,412.08v71a21.3,21.3,0,0,1-21.31,21.3H145.43a114.72,114.72,0,0,1,74-102.6A21.35,21.35,0,0,1,222.07,412.08Z" transform="translate(-2.35 -45.74)" fill="url(#linear-gradient-3)"></path><rect x="95.93" y="344.84" width="115.56" height="104" rx="19.51" fill="#fff"></rect><g opacity="0.52"><rect x="256.14" y="220.78" width="37.18" height="2.73" fill="#fff"></rect><rect x="256.14" y="226.06" width="22.69" height="2.56" fill="#fff"></rect><rect x="287.99" y="226.06" width="71.41" height="2.58" fill="#fff"></rect><rect x="267.94" y="231.35" width="31.2" height="2.7" fill="#fff"></rect><rect x="277.96" y="236.62" width="37.18" height="2.73" fill="#fff"></rect><rect x="317.56" y="236.62" width="31.16" height="3.03" fill="#fff"></rect><rect x="277.9" y="241.9" width="28.71" height="2.56" fill="#fff"></rect><rect x="309.36" y="241.9" width="59.24" height="2.84" fill="#fff"></rect><rect x="256.14" y="249.04" width="37.18" height="2.73" fill="#fff"></rect><rect x="256.14" y="254.31" width="22.69" height="2.56" fill="#fff"></rect><rect x="287.99" y="254.31" width="71.41" height="2.58" fill="#fff"></rect><rect x="267.94" y="259.59" width="31.2" height="2.7" fill="#fff"></rect><rect x="277.96" y="264.88" width="37.18" height="2.73" fill="#fff"></rect><rect x="317.56" y="264.88" width="31.16" height="3.03" fill="#fff"></rect><rect x="277.9" y="270.15" width="28.71" height="2.56" fill="#fff"></rect><rect x="309.36" y="270.15" width="59.24" height="2.84" fill="#fff"></rect><rect x="256.14" y="277.29" width="37.18" height="2.73" fill="#fff"></rect><rect x="256.14" y="282.57" width="22.69" height="2.56" fill="#fff"></rect><rect x="287.99" y="282.57" width="71.41" height="2.58" fill="#fff"></rect><rect x="267.94" y="287.84" width="31.2" height="2.7" fill="#fff"></rect><rect x="277.96" y="293.12" width="37.18" height="2.73" fill="#fff"></rect><rect x="317.56" y="293.12" width="31.16" height="3.03" fill="#fff"></rect><rect x="277.9" y="298.41" width="28.71" height="2.56" fill="#fff"></rect><rect x="309.36" y="298.41" width="59.24" height="2.84" fill="#fff"></rect></g><g opacity="0.52"><rect x="256.14" y="357.25" width="37.18" height="2.73" fill="#fff"></rect><rect x="256.14" y="362.52" width="22.69" height="2.56" fill="#fff"></rect><rect x="287.99" y="362.52" width="71.41" height="2.58" fill="#fff"></rect><rect x="267.94" y="367.81" width="31.2" height="2.7" fill="#fff"></rect><rect x="277.96" y="373.09" width="37.18" height="2.73" fill="#fff"></rect><rect x="317.56" y="373.09" width="31.16" height="3.03" fill="#fff"></rect><rect x="277.9" y="378.36" width="28.71" height="2.56" fill="#fff"></rect><rect x="309.36" y="378.36" width="59.24" height="2.84" fill="#fff"></rect><rect x="256.14" y="385.5" width="37.18" height="2.73" fill="#fff"></rect><rect x="256.14" y="390.78" width="22.69" height="2.56" fill="#fff"></rect><rect x="287.99" y="390.78" width="71.41" height="2.58" fill="#fff"></rect><rect x="267.94" y="396.05" width="31.2" height="2.7" fill="#fff"></rect><rect x="277.96" y="401.34" width="37.18" height="2.73" fill="#fff"></rect><rect x="317.56" y="401.34" width="31.16" height="3.03" fill="#fff"></rect><rect x="277.9" y="406.62" width="28.71" height="2.56" fill="#fff"></rect><rect x="309.36" y="406.62" width="59.24" height="2.84" fill="#fff"></rect><rect x="256.14" y="413.76" width="37.18" height="2.73" fill="#fff"></rect><rect x="256.14" y="419.03" width="22.69" height="2.56" fill="#fff"></rect><rect x="287.99" y="419.03" width="71.41" height="2.58" fill="#fff"></rect><rect x="267.94" y="424.31" width="31.2" height="2.7" fill="#fff"></rect><rect x="277.96" y="429.58" width="37.18" height="2.73" fill="#fff"></rect><rect x="317.56" y="429.58" width="31.16" height="3.03" fill="#fff"></rect><rect x="277.9" y="434.87" width="28.71" height="2.56" fill="#fff"></rect><rect x="309.36" y="434.87" width="59.24" height="2.84" fill="#fff"></rect></g><rect x="115.04" y="368.69" width="27.71" height="2.03" fill="#EB6E64"></rect><rect x="115.04" y="372.62" width="16.91" height="1.91" fill="#EB6E64"></rect><rect x="138.77" y="372.62" width="53.23" height="1.92" fill="#EB6E64"></rect><rect x="123.83" y="376.56" width="23.26" height="2.01" fill="#EB6E64"></rect><rect x="131.3" y="380.49" width="27.71" height="2.03" fill="#EB6E64"></rect><rect x="160.82" y="380.49" width="23.23" height="2.26" fill="#EB6E64"></rect><rect x="131.26" y="384.43" width="21.4" height="1.91" fill="#EB6E64"></rect><rect x="154.71" y="384.43" width="44.16" height="2.11" fill="#EB6E64"></rect><rect x="115.04" y="389.75" width="27.71" height="2.03" fill="#EB6E64"></rect><rect x="115.04" y="393.68" width="16.91" height="1.91" fill="#EB6E64"></rect><rect x="138.77" y="393.68" width="53.23" height="1.92" fill="#EB6E64"></rect><rect x="123.83" y="397.61" width="23.26" height="2.01" fill="#EB6E64"></rect><rect x="131.3" y="401.56" width="27.71" height="2.03" fill="#EB6E64"></rect><rect x="160.82" y="401.56" width="23.23" height="2.26" fill="#EB6E64"></rect><rect x="131.26" y="405.49" width="21.4" height="1.91" fill="#EB6E64"></rect><rect x="154.71" y="405.49" width="44.16" height="2.11" fill="#EB6E64"></rect><rect x="115.04" y="410.81" width="27.71" height="2.03" fill="#EB6E64"></rect><rect x="115.04" y="414.74" width="16.91" height="1.91" fill="#EB6E64"></rect><rect x="138.77" y="414.74" width="53.23" height="1.92" fill="#EB6E64"></rect><rect x="123.83" y="418.67" width="23.26" height="2.01" fill="#EB6E64"></rect><rect x="131.3" y="422.61" width="27.71" height="2.03" fill="#EB6E64"></rect><rect x="160.82" y="422.61" width="23.23" height="2.26" fill="#EB6E64"></rect><rect x="131.26" y="426.55" width="21.4" height="1.91" fill="#EB6E64"></rect><rect x="154.71" y="426.55" width="44.16" height="2.11" fill="#EB6E64"></rect><g opacity="0.24" style="isolation: isolate;"><rect x="68.87" y="141.35" width="158.99" height="73.32" rx="11.26" transform="translate(294.37 310.28) rotate(-180)" fill="#EB6E64"></rect><polygon points="225.5 184.03 225.5 157.4 202.99 157.4 225.5 184.03" fill="#EB6E64"></polygon></g><rect x="75.22" y="135.24" width="147.34" height="67.94" rx="10.43" transform="translate(295.43 292.69) rotate(-180)" fill="#fff"></rect><polygon points="220.2 171.44 220.2 146.76 199.34 146.76 220.2 171.44" fill="#fff"></polygon><rect x="310.93" y="151.55" width="72.84" height="5.6" rx="2.8" fill="#EB6E64"></rect><rect x="310.93" y="151.55" width="72.84" height="5.6" rx="2.8" fill="url(#linear-gradient-4)"></rect><circle cx="288.35" cy="110.23" r="4.73" fill="url(#linear-gradient-5)"></circle><path d="M420.48,343.35c-1.52,1.49-3.67,2.13-5.48,3.26a11.36,11.36,0,0,0-3.72,3.83c.86,1.07,2.51.8,3.82.41,2.62-.8,5.21-1.72,7.75-2.78a4.71,4.71,0,0,0,1.54-.88,4.64,4.64,0,0,0,1-1.84,28.53,28.53,0,0,0,1.65-8.72,4.86,4.86,0,0,0-.34-2.34c-1.64-3.27-3,1.79-3.38,3C422.71,339.46,422.12,341.74,420.48,343.35Z" transform="translate(-2.35 -45.74)" fill="url(#linear-gradient-6)"></path><path d="M423.14,332a1.94,1.94,0,0,0,0,1.14,1.8,1.8,0,0,0,.68.77,10.83,10.83,0,0,0,3.62,1.74,3.07,3.07,0,0,0,1.2.14,3.19,3.19,0,0,0,1.81-1.17,17.27,17.27,0,0,0,4.22-9.86c.18-1.62.75-7.6-.61-8.78-1.54-1.34-3.44,1.74-4.47,3A34.17,34.17,0,0,0,423.14,332Z" transform="translate(-2.35 -45.74)" fill="#fff"></path><path d="M457.09,362.33s1.71,17.65-3.41,19.44-16.88,4.6-23.27,2.3a89.88,89.88,0,0,1-19.52-11.34c-4.25-3.42-4.83-4.9-6.82.17l-10.49,19.61s.51,1-6.9,1.53-12.28,1-10.75-.76,9.89-5.38,9.89-5.38,10.23-35.63,14.33-37.17,29,10.83,29,10.83Z" transform="translate(-2.35 -45.74)" fill="#606161"></path><path d="M427.27,368c1.59-.75,3.33-1.32,4.56-2.57a47.69,47.69,0,0,0-21.67-7.85,6.3,6.3,0,0,0-2.25.11,6.12,6.12,0,0,0-3.22,3c-3.31,5.42-4.6,11.81-5.42,18.1,1.52-.54,2.12-2.31,2.78-3.78a14.73,14.73,0,0,1,3.37-4.68,2.18,2.18,0,0,1,1.1-.67,2.41,2.41,0,0,1,1.5.41,25.32,25.32,0,0,1,4.81,3.46c1.66,1.51,2.06,2.34,4.18,1.15C420.57,372.65,423.57,369.76,427.27,368Z" transform="translate(-2.35 -45.74)" fill="url(#linear-gradient-7)"></path><path d="M430.93,320.17c-3.91,9.5-5.49,19.86-5.57,30.14,0,3.3.31,7.06,2.9,9.1,1.56,1.23,3.62,1.56,5.59,1.85,4.61.67,9.32,1.31,13.91.51s9.14-3.26,11.27-7.4c1.65-3.19,1.7-6.94,1.65-10.53-.16-10.06-1-22.16-8.83-29.53-3-2.83-6.8-6.11-11.12-4.87C435.63,310.9,432.83,315.58,430.93,320.17Z" transform="translate(-2.35 -45.74)" fill="#fff"></path><path d="M435.24,315.44c0,.74,0,1.66.64,2a1.4,1.4,0,0,0,.88.09,4.56,4.56,0,0,0,2.87-2.23,8.86,8.86,0,0,0,1.38-5.94,8,8,0,0,0-2.54-4.79,1.24,1.24,0,0,0-1.93-.16,9.36,9.36,0,0,0-2,2.1c-.56.85-.23,1.34,0,2.28A21.65,21.65,0,0,1,435.24,315.44Z" transform="translate(-2.35 -45.74)" fill="url(#linear-gradient-8)"></path><polygon points="390.35 283.07 395.15 309.82 411.68 322.19 434.83 314.68 430.35 311.04 416.91 298.88 408.91 301.71 407.63 295.23 390.35 283.07" fill="#EB6E64"></polygon><path d="M411.26,347.45s3,15.65,3,16.11,18.55-5.24,18.55-5.24l-13.57-13.71Z" transform="translate(-2.35 -45.74)" fill="url(#linear-gradient-9)"></path><path d="M443.28,323.28s-2.64,16.12-2,17.31,4.18,2.64,4.18,2.64-1.19,6.4-9.38,7.93-6.48,8.27-6.48,8.27,4.44,3.07,12.45,2.05,12.11-1.2,14-4.27,3.24-14.83,1.88-19.6S443.28,323.28,443.28,323.28Z" transform="translate(-2.35 -45.74)" fill="url(#linear-gradient-10)"></path><path d="M445.77,347.68c-3,2.9-7.24,4.13-11.33,5a94.67,94.67,0,0,1-10.58,1.56c-2.45.21-5,.35-7.17,1.47s-3.93,3.53-3.41,5.93q12.29-.66,24.56-1.49c4.35-.29,8.76-.62,12.88-2,2.89-1,5.78-2.72,6.92-5.56a11.57,11.57,0,0,0,.67-3.56,72.17,72.17,0,0,0-.2-9.06,15.24,15.24,0,0,0-1.19-5.93c-2.14-4.27-7.49-4.08-8.24.55C447.87,339.5,450.12,343.49,445.77,347.68Z" transform="translate(-2.35 -45.74)" fill="url(#linear-gradient-11)"></path><path d="M441.66,320.51l5.63,18.54s12-.38,13.3-2.55-2.89-18.67-8.74-22.19S441.79,314.89,441.66,320.51Z" transform="translate(-2.35 -45.74)" fill="#fff"></path><path d="M434.25,365.65l-42.72,22.77-3.32,40.15s-6.65,6.14-6.65,7.93,3.58.77,8.95-1.28a32.06,32.06,0,0,0,8.19-4.35l7.41-33.76s44.25-6.14,47.57-15.34a12.3,12.3,0,0,0-4.09-14.33Z" transform="translate(-2.35 -45.74)" fill="#606161"></path><polygon points="393.85 308.85 410.3 321.09 405.17 292.29 390.35 285.52 393.85 308.85" fill="url(#linear-gradient-12)"></polygon><path d="M424.5,308.5a12.25,12.25,0,0,0,1.86,2.59,7,7,0,0,0,8,1.14,8.23,8.23,0,0,0,3.76-4.85,13.65,13.65,0,0,0,.27-6.23,11.2,11.2,0,0,0-9.45-10.27,6.57,6.57,0,0,0-2.92-.15,7.7,7.7,0,0,0-2.55,1.26,11.3,11.3,0,0,0-2.36,1.94C417.8,297.8,422.53,305.1,424.5,308.5Z" transform="translate(-2.35 -45.74)" fill="url(#linear-gradient-13)"></path><path d="M435.86,300.91a1.45,1.45,0,0,0,.57-1.24c0-.48-.11-.95-.11-1.42a.77.77,0,0,1,.07-.37c.21-.38.82-.22,1.09.12.74.91.26,2.24.31,3.4a3.57,3.57,0,0,0,1,2.32,13.18,13.18,0,0,0-1.2-11.62,3.74,3.74,0,0,1-.55-1,18.53,18.53,0,0,1,0-2.36,3.27,3.27,0,0,0-2.92-2.34c-1.32-.19-2.67.06-4,0-.92-.06-1.82-.29-2.73-.32a10.89,10.89,0,0,0-2.89.4,11.71,11.71,0,0,0-6,3.06c-1.83,2-2.3,4.89-2.45,7.61-.08,1.56,0,3.35,1.18,4.39a4.46,4.46,0,0,0,3.21.83,5.4,5.4,0,0,0,3.33-1.18,11,11,0,0,0,1.94-3.33.64.64,0,0,1,.26-.32.68.68,0,0,1,.4,0,13.75,13.75,0,0,0,2.62.42,3.25,3.25,0,0,0,2.43-.89.66.66,0,0,1,.36-.26.72.72,0,0,1,.32.08,12.49,12.49,0,0,1,2.54,1.25A10.92,10.92,0,0,1,435.86,300.91Z" transform="translate(-2.35 -45.74)" fill="#606161"></path><path d="M413.67,350.45a1.49,1.49,0,0,0,1.3,1.35,2,2,0,0,0,.78-.2,14.05,14.05,0,0,0,5-3.45,1.35,1.35,0,0,0,.36-.53,1.45,1.45,0,0,0-.07-.82c-.58-1.84-3-3.74-4.88-2.2a7,7,0,0,0-1.27,2.11C414.35,347.78,413.5,349.18,413.67,350.45Z" transform="translate(-2.35 -45.74)" fill="url(#linear-gradient-14)"></path><path d="M94.79,170.47l12.36-6.36v1.83l-10.41,5.22v.05l10.41,5.22v1.84l-12.36-6.36Z" transform="translate(-2.35 -45.74)" fill="#EB6E64"></path><path d="M110.84,169.59c0-1.65,0-3-.11-4.2h2.11l.1,2.21H113a5,5,0,0,1,4.58-2.51c3.11,0,5.46,2.64,5.46,6.55,0,4.63-2.83,6.92-5.86,6.92a4.51,4.51,0,0,1-4-2h0v7h-2.32Zm2.32,3.44a5.54,5.54,0,0,0,.1.95,3.62,3.62,0,0,0,3.52,2.75c2.47,0,3.91-2,3.91-5,0-2.59-1.35-4.8-3.83-4.8a3.74,3.74,0,0,0-3.54,2.91,3.78,3.78,0,0,0-.16,1Z" transform="translate(-2.35 -45.74)" fill="#EB6E64"></path><path d="M126.65,165.39l2.82,7.61c.29.85.61,1.86.82,2.63h.06c.24-.77.5-1.75.82-2.69l2.56-7.55h2.48l-3.52,9.18c-1.68,4.42-2.82,6.68-4.42,8.07a6.26,6.26,0,0,1-2.87,1.51l-.59-2a6.1,6.1,0,0,0,2-1.14,7.09,7.09,0,0,0,2-2.61,1.59,1.59,0,0,0,.19-.56,2.26,2.26,0,0,0-.16-.61l-4.77-11.87Z" transform="translate(-2.35 -45.74)" fill="#EB6E64"></path><path d="M141.15,161.68v3.71h3.36v1.78h-3.36v7c0,1.59.46,2.5,1.76,2.5a5.28,5.28,0,0,0,1.36-.16l.1,1.76a5.88,5.88,0,0,1-2.07.31,3.23,3.23,0,0,1-2.53-1,4.75,4.75,0,0,1-.91-3.35v-7h-2v-1.78h2V162.3Z" transform="translate(-2.35 -45.74)" fill="#EB6E64"></path><path d="M147.14,159.37h2.34v8h.05a4.37,4.37,0,0,1,1.68-1.65,4.82,4.82,0,0,1,2.4-.67c1.73,0,4.5,1.07,4.5,5.51v7.67h-2.35v-7.4c0-2.08-.77-3.83-3-3.83a3.37,3.37,0,0,0-3.14,2.34,2.88,2.88,0,0,0-.16,1.12v7.77h-2.34Z" transform="translate(-2.35 -45.74)" fill="#EB6E64"></path><path d="M173.57,171.72c0,4.76-3.3,6.84-6.42,6.84-3.49,0-6.18-2.55-6.18-6.63,0-4.31,2.83-6.84,6.39-6.84S173.57,167.78,173.57,171.72Zm-10.23.14c0,2.82,1.63,4.95,3.92,4.95s3.91-2.11,3.91-5c0-2.18-1.09-5-3.86-5S163.34,169.4,163.34,171.86Z" transform="translate(-2.35 -45.74)" fill="#EB6E64"></path><path d="M176.52,168.87c0-1.33,0-2.42-.11-3.48h2.08l.13,2.12h0a4.75,4.75,0,0,1,4.26-2.42c1.79,0,4.55,1.07,4.55,5.49v7.69h-2.34v-7.43c0-2.07-.77-3.8-3-3.8a3.33,3.33,0,0,0-3.14,2.39,3.25,3.25,0,0,0-.16,1.09v7.75h-2.34Z" transform="translate(-2.35 -45.74)" fill="#EB6E64"></path><path d="M203.45,171.93l-12.35,6.34v-1.84l10.49-5.22v-.05l-10.49-5.22v-1.83l12.35,6.33Z" transform="translate(-2.35 -45.74)" fill="#EB6E64"></path></svg>