<?xml version="1.0" encoding="UTF-8" standalone="no"?>
<svg
   xmlns:dc="http://purl.org/dc/elements/1.1/"
   xmlns:cc="http://creativecommons.org/ns#"
   xmlns:rdf="http://www.w3.org/1999/02/22-rdf-syntax-ns#"
   xmlns:svg="http://www.w3.org/2000/svg"
   xmlns="http://www.w3.org/2000/svg"
   xmlns:sodipodi="http://sodipodi.sourceforge.net/DTD/sodipodi-0.dtd"
   xmlns:inkscape="http://www.inkscape.org/namespaces/inkscape"
   inkscape:version="1.0 (4035a4f, 2020-05-01)"
   sodipodi:docname="news.svg"
   id="svg77"
   version="1.1"
   class="illustration styles_illustrationTablet__1DWOa"
   height="337.88589"
   width="400"
   viewBox="0 0 394.08866 331.26069">
  <metadata
     id="metadata83">
    <rdf:RDF>
      <cc:Work
         rdf:about="">
        <dc:format>image/svg+xml</dc:format>
        <dc:type
           rdf:resource="http://purl.org/dc/dcmitype/StillImage" />
        <dc:title />
      </cc:Work>
    </rdf:RDF>
  </metadata>
  <defs
     id="defs81" />
  <sodipodi:namedview
     inkscape:current-layer="svg77"
     inkscape:window-maximized="1"
     inkscape:window-y="23"
     inkscape:window-x="0"
     inkscape:cy="185.05294"
     inkscape:cx="133.69765"
     inkscape:zoom="1.8423646"
     showgrid="false"
     id="namedview79"
     inkscape:window-height="959"
     inkscape:window-width="1680"
     inkscape:pageshadow="2"
     inkscape:pageopacity="0"
     guidetolerance="10"
     gridtolerance="10"
     objecttolerance="10"
     borderopacity="1"
     bordercolor="#666666"
     pagecolor="#ffffff"
     inkscape:document-rotation="0" />
  <path
     style="stroke-width:2.2615"
     d="M 355.84673,330.22306 H 38.219318 A 35.95782,35.95782 0 0 1 2.2614981,294.26524 V 1.8535459 H 319.91152 V 294.26524 a 35.935205,35.935205 0 0 0 35.93521,35.95782 z"
     fill="#ffffff"
     id="path10" />
  <path
     style="stroke-width:2.2615;fill:#231f20;fill-opacity:1"
     d="M 355.84673,332.48456 H 38.219318 A 38.264548,38.264548 0 0 1 0,294.26524 V 1.8535459 A 2.2614981,2.2614981 0 0 1 2.2614981,-0.40795222 H 319.91152 a 2.2614981,2.2614981 0 0 1 2.2615,2.26149812 V 294.26524 a 33.718937,33.718937 0 0 0 33.67371,33.69632 2.2615,2.2615 0 0 1 0,4.523 z M 4.5229962,4.1150439 V 294.26524 A 33.741552,33.741552 0 0 0 38.219318,327.96156 H 337.8452 A 38.241933,38.241933 0 0 1 317.65002,294.26524 V 4.1150439 Z"
     fill="#093f68"
     id="path12" />
  <path
     style="stroke-width:2.2615;fill:#231f20;fill-opacity:1"
     d="m 59.832365,140.1478 11.016345,-2.54941 10.274076,44.39587 a 5.6537452,5.6537452 0 0 1 -4.233456,6.78289 v 0 a 5.6537452,5.6537452 0 0 1 -6.782889,-4.23348 z"
     fill="#093f68"
     id="path14" />
  <path
     style="fill:#231f20;fill-opacity:1;stroke-width:2.26108;stroke-miterlimit:4;stroke-dasharray:none"
     d="m 76.745149,192.58653 a 7.9378583,7.9378583 0 0 1 -7.711708,-6.12866 L 58.766239,142.06466 a 2.2614981,2.2614981 0 0 1 1.696123,-2.71379 l 10.990881,-2.5555 a 2.2614981,2.2614981 0 0 1 1.718738,0.294 2.2614981,2.2614981 0 0 1 0.99506,1.40213 l 10.267201,44.39321 a 7.9152433,7.9152433 0 0 1 -5.90251,9.49829 v 0 a 7.8247834,7.8247834 0 0 1 -1.786583,0.20353 z m 1.266438,-2.4198 z m -14.337898,-46.92609 9.769672,42.2674 a 3.3696322,3.3696322 0 0 0 4.048082,2.53288 v 0 a 3.4148621,3.4148621 0 0 0 2.555493,-4.0707 l -9.769672,-42.17693 z"
     fill="#093f68"
     id="path16" />
  <circle
     style="stroke-width:2.2615"
     cx="148.39951"
     cy="116.44367"
     r="16.192326"
     fill="#eb6e64"
     id="circle18" />
  <path
     style="stroke-width:2.2615;fill:#231f20;fill-opacity:1"
     d="m 148.35428,134.92009 a 18.453824,18.453824 0 1 1 18.36336,-20.57963 v 0 a 18.476439,18.476439 0 0 1 -16.21494,20.35348 17.39092,17.39092 0 0 1 -2.14842,0.22615 z m 0,-32.38465 a 12.980999,12.980999 0 0 0 -1.60567,0 13.930828,13.930828 0 1 0 1.60567,0 z"
     fill="#093f68"
     id="path20" />
  <path
     style="stroke-width:2.2615"
     d="m 144.75849,69.924639 10.62904,92.721421 c 0,0 -32.90479,-15.12942 -51.24554,-13.02623 l -39.938059,4.523 a 27.862504,27.862504 0 1 1 -6.35481,-55.361475 l 39.938057,-4.522996 c 18.340752,-2.148423 46.971312,-24.33372 46.971312,-24.33372 z"
     fill="#eb6e64"
     id="path22" />
  <path
     style="stroke-width:2.2615;fill:#231f20;fill-opacity:1"
     d="m 155.38753,164.86233 a 2.397188,2.397188 0 0 1 -0.94982,-0.20354 c -0.31661,-0.13569 -32.54296,-14.83542 -50.04696,-12.8453 l -39.938054,4.52299 A 30.123155,30.123155 0 1 1 57.668202,96.474627 L 97.606258,91.951631 C 115.08764,89.938897 143.15283,68.341591 143.44682,68.138056 a 2.2614981,2.2614981 0 0 1 2.2615,-0.31661 2.2614981,2.2614981 0 0 1 1.3569,1.831814 l 10.65166,92.72142 a 2.2614981,2.2614981 0 0 1 -0.92722,2.08058 2.2614981,2.2614981 0 0 1 -1.40213,0.40707 z m -47.49146,-17.75276 c 15.2425,0 36.38751,8.27708 44.8229,11.85025 l -9.74706,-84.874024 c -8.07355,5.879895 -29.62563,20.602247 -44.913352,22.366216 l -39.938057,4.522998 a 25.600158,25.600158 0 1 0 5.85728,50.86109 l 39.938059,-4.523 a 37.495638,37.495638 0 0 1 3.95762,-0.20353 z"
     fill="#093f68"
     id="path24" />
  <path
     style="stroke-width:2.2615"
     d="m 74.923432,96.836467 6.35481,55.361473 -17.051696,1.9675 a 27.862503,27.862503 0 0 1 -6.35481,-55.36147 z"
     fill="#eb6e64"
     id="path26" />
  <path
     style="stroke-width:2.2615;fill:#231f20;fill-opacity:1"
     d="M 60.969989,156.60786 A 30.123155,30.123155 0 0 1 31.095599,129.85434 30.168385,30.168385 0 0 1 57.600357,96.474627 l 17.02908,-1.944888 a 2.2614981,2.2614981 0 0 1 2.510263,1.990118 l 6.35481,55.361473 a 2.2614981,2.2614981 0 0 1 -1.990118,2.51026 l -17.029081,1.94489 a 30.665914,30.665914 0 0 1 -3.505322,0.27138 z m 11.94071,-57.26113 -14.812813,1.69612 a 25.622773,25.622773 0 0 0 -22.501906,28.35919 25.645388,25.645388 0 0 0 28.359186,22.61498 l 14.790198,-1.71874 z"
     fill="#093f68"
     id="path28" />
  <path
     style="stroke-width:2.2615;fill:#231f20;fill-opacity:1"
     d="m 50.431408,117.23518 a 2.2614981,2.2614981 0 0 1 -2.261498,-2.01273 2.2614981,2.2614981 0 0 1 1.990118,-2.48765 l 13.568988,-1.51521 a 2.2614981,2.2614981 0 0 1 2.487648,1.99012 2.2614981,2.2614981 0 0 1 -1.990118,2.48765 l -13.568989,1.53782 z"
     fill="#093f68"
     id="path30" />
  <path
     style="stroke-width:2.2615;fill:#4f4c4c;fill-opacity:1"
     d="m 51.155087,126.64301 a 2.2649161,2.2649161 0 0 1 -0.248765,-4.52299 l 13.568989,-1.51521 a 2.2614981,2.2614981 0 0 1 2.510263,1.99012 2.2614981,2.2614981 0 0 1 -2.012734,2.51026 l -13.568988,1.51521 z"
     fill="#093f68"
     id="path32" />
  <path
     style="stroke-width:2.2615"
     d="m 160.86036,87.36079 a 2.2614981,2.2614981 0 0 1 -2.01273,-1.221209 2.2614981,2.2614981 0 0 1 0.94983,-3.030408 l 12.12163,-6.309579 a 2.265678,2.265678 0 0 1 2.08057,4.025466 l -12.09901,6.286965 a 2.2614981,2.2614981 0 0 1 -1.04029,0.248765 z"
     fill="#dfeaef"
     id="path34" />
  <path
     style="stroke-width:2.2615"
     d="m 172.91414,114.02385 a 2.2655652,2.2655652 0 0 1 -0.27138,-4.52299 l 16.50894,-1.99012 a 2.2614981,2.2614981 0 0 1 2.51026,1.9675 2.2614981,2.2614981 0 0 1 -1.9675,2.53288 l -16.50894,1.99012 z"
     fill="#dfeaef"
     id="path36" />
  <path
     style="stroke-width:2.2615"
     d="m 183.47534,149.98167 a 2.2614981,2.2614981 0 0 1 -0.9046,-0.18092 l -14.51882,-6.37742 a 2.2614981,2.2614981 0 0 1 1.8092,-4.13854 l 14.63189,6.46788 a 2.2614981,2.2614981 0 0 1 -0.92721,4.31946 z"
     fill="#dfeaef"
     id="path38" />
  <path
     style="stroke-width:2.2615"
     d="m 319.91152,181.21296 h 71.89303 v 113.0749 a 35.95782,35.95782 0 0 1 -35.95782,35.95782 v 0 a 35.95782,35.95782 0 0 1 -35.95782,-35.95782 v -113.0749 z"
     fill="#eb6e64"
     id="path48" />
  <path
     style="stroke-width:2.2615;fill:#231f20;fill-opacity:1"
     d="M 355.86934,332.48456 A 38.264548,38.264548 0 0 1 317.65002,294.26524 V 181.19035 a 2.2614981,2.2614981 0 0 1 2.2615,-2.2615 h 71.91564 a 2.2614981,2.2614981 0 0 1 2.2615,2.2615 v 113.07489 a 38.264548,38.264548 0 0 1 -38.21932,38.21932 z m -33.69632,-149.0101 v 110.8134 a 33.696322,33.696322 0 1 0 67.39264,0 v -110.8134 z"
     fill="#093f68"
     id="path50" />
  <path
     style="stroke-width:2.2615;fill:#231f20;fill-opacity:0.87058824"
     d="m 289.29084,78.405257 h -75.91849 a 2.2614981,2.2614981 0 0 1 0,-4.522996 h 75.91849 a 2.2614981,2.2614981 0 0 1 0,4.522996 z"
     fill="#093f68"
     id="path52" />
  <path
     style="stroke-width:2.2615;fill:#352626;fill-opacity:1"
     d="m 289.29084,112.39557 h -75.91849 a 2.2614981,2.2614981 0 0 1 0,-4.52299 h 75.91849 a 2.2614981,2.2614981 0 0 1 0,4.52299 z"
     fill="#093f68"
     id="path54" />
  <path
     style="stroke-width:2.2615;fill:#292122;fill-opacity:1"
     d="m 289.29084,146.38589 h -75.91849 a 2.2615,2.2615 0 1 1 0,-4.523 h 75.91849 a 2.2615,2.2615 0 1 1 0,4.523 z"
     fill="#093f68"
     id="path56" />
  <path
     style="stroke-width:2.2615;fill:#231f20;fill-opacity:1"
     d="m 289.29084,180.37621 h -75.91849 a 2.2615,2.2615 0 0 1 0,-4.523 h 75.91849 a 2.2615,2.2615 0 0 1 0,4.523 z"
     fill="#093f68"
     id="path58" />
  <path
     style="stroke-width:2.2615;fill:#2f2b2c;fill-opacity:1"
     d="M 289.29084,217.69093 H 168.6173 a 2.2615,2.2615 0 0 1 0,-4.523 h 120.67354 a 2.2615,2.2615 0 0 1 0,4.523 z"
     fill="#093f68"
     id="path60" />
  <path
     style="stroke-width:2.2615;fill:#231f20;fill-opacity:1"
     d="M 132.45594,217.69093 H 32.701263 a 2.2615,2.2615 0 0 1 0,-4.523 h 99.754677 a 2.2615,2.2615 0 0 1 0,4.523 z"
     fill="#093f68"
     id="path62" />
  <path
     style="stroke-width:2.2615;fill:#231f20;fill-opacity:1"
     d="M 289.29084,249.91726 H 33.153562 a 2.2614981,2.2614981 0 0 1 0,-4.52299 H 289.29084 a 2.2614981,2.2614981 0 0 1 0,4.52299 z"
     fill="#093f68"
     id="path64" />
  <path
     style="stroke-width:2.2615;fill:#272021;fill-opacity:1"
     d="M 252.33796,282.16623 H 33.153562 a 2.2615,2.2615 0 0 1 0,-4.523 H 252.33796 a 2.2615,2.2615 0 0 1 0,4.523 z"
     fill="#093f68"
     id="path66" />
  <path
     style="stroke-width:2.2615;fill:#231f20;fill-opacity:1"
     d="m 366.34008,224.22665 h -44.91336 a 2.2614981,2.2614981 0 0 1 0,-4.52299 h 44.9812 a 2.2614981,2.2614981 0 0 1 0,4.52299 z"
     fill="#093f68"
     id="path68" />
  <path
     style="stroke-width:2.2615;fill:#231f20;fill-opacity:1"
     d="m 366.34008,252.24661 h -44.91336 a 2.2615,2.2615 0 0 1 0,-4.523 h 44.9812 a 2.2615,2.2615 0 0 1 0,4.523 z"
     fill="#093f68"
     id="path70" />
  <path
     style="stroke-width:2.2615;fill:#2f2b2c;fill-opacity:1"
     d="m 366.34008,280.26657 h -44.91336 a 2.2615,2.2615 0 0 1 0,-4.523 h 44.9812 a 2.2615,2.2615 0 0 1 0,4.523 z"
     fill="#093f68"
     id="path72" />
  <path
     style="stroke-width:2.2615"
     d="M 289.29084,54.863062 H 28.879331 a 2.2614981,2.2614981 0 0 1 0,-4.522996 H 289.29084 a 2.2614981,2.2614981 0 0 1 0,4.522996 z"
     fill="#dfeaef"
     id="path74" />
  <text
     id="text156"
     y="40.116524"
     x="83.025436"
     style="font-style:normal;font-weight:normal;font-size:33.10360000000000014px;line-height:1.25;font-family:sans-serif;fill:#352626;fill-opacity:1;stroke:none;stroke-width:0.827593;"
     xml:space="preserve"><tspan
       style="fill:#352626;fill-opacity:1;stroke-width:0.827593;"
       y="40.116524"
       x="83.025436"
       id="tspan154"
       sodipodi:role="line">Bytecode</tspan></text>
</svg>
