<svg id="_280_smiley_face_outline" data-name="#280_smiley_face_outline" xmlns="http://www.w3.org/2000/svg" viewBox="0 0 400 300" width="406" height="306" class="illustration styles_illustrationTablet__1DWOa"><path d="M286.07,152.58A86,86,0,0,1,152.56,224.4a83.62,83.62,0,0,1-8.15-6.11A86.07,86.07,0,0,1,162,75.36h0a86.25,86.25,0,0,1,66.9-3.85s0,0,0,0A86.08,86.08,0,0,1,286.07,152.58Z" fill="#fff"></path><path d="M200,239.65a86.66,86.66,0,0,1-48-14.41,85.32,85.32,0,0,1-8.25-6.19A87.06,87.06,0,0,1,161.48,74.5l.08,0a87.26,87.26,0,0,1,67.68-3.89h0s0,0,.08,0A87.06,87.06,0,0,1,200,239.65ZM162.51,76.21l-.08.05a85.06,85.06,0,1,0,66.16-3.81l-.08,0a85.29,85.29,0,0,0-66,3.79Z" fill="#093f68"></path><rect x="193.73" y="162.98" width="12.4" height="16.23" fill="#ffbc0e"></rect><path d="M206.13,180.22h-12.4a1,1,0,0,1-1-1V163a1,1,0,0,1,1-1h12.4a1,1,0,0,1,1,1v16.24A1,1,0,0,1,206.13,180.22Zm-11.4-2h10.4V164h-10.4Z" fill="#093f68"></path><path d="M247.44,211.35V224.4a86,86,0,0,1-94.88,0V211.35A44.5,44.5,0,0,1,154,199.86c4.09-15.51,16.25-26.77,30.62-26.77h30.68C233.07,173.09,247.44,190.22,247.44,211.35Z" fill="#68e1fd"></path><path d="M200,239.65a86.66,86.66,0,0,1-48-14.41,1,1,0,0,1-.45-.84V211.35a45.89,45.89,0,0,1,1.51-11.75c4.34-16.45,17-27.51,31.59-27.51h30.68c18.25,0,33.1,17.61,33.1,39.26V224.4a1,1,0,0,1-.45.84,86.66,86.66,0,0,1-48,14.41Zm-46.44-15.79a85,85,0,0,0,92.88,0V211.35c0-20.55-13.95-37.26-31.1-37.26H184.66c-13.63,0-25.55,10.46-29.65,26a43.61,43.61,0,0,0-1.45,11.23Zm93.88.54h0Z" fill="#093f68"></path><path d="M171.22,234.71a1,1,0,0,1-1-1V202.59a1,1,0,0,1,2,0v31.12A1,1,0,0,1,171.22,234.71Z" fill="#093f68"></path><path d="M228.78,234.71a1,1,0,0,1-1-1V202.59a1,1,0,0,1,2,0v31.12A1,1,0,0,1,228.78,234.71Z" fill="#093f68"></path><polygon points="200 206.07 189.89 173.09 210.11 173.09 200 206.07" fill="#093f68"></polygon><path d="M200,207.07a1,1,0,0,1-1-.71l-10.1-33a1,1,0,0,1,.15-.88,1,1,0,0,1,.8-.41h20.22a1,1,0,0,1,.8.41,1,1,0,0,1,.15.88l-10.1,33A1,1,0,0,1,200,207.07Zm-8.75-33L200,202.66l8.75-28.57Z" fill="#093f68"></path><path d="M171.22,233.59v.12a85.18,85.18,0,0,1-18.66-9.31,83.62,83.62,0,0,1-8.15-6.11l-9.18-24.22s-7.45-8-7-13.93,6.69-11,9.5-9.8c1.67.73,6.9,12.09,6.9,12.09,2.59-9.08,4.88-8.79,6.58-7.2s-2.6,14.71-2.6,14.71l5.48,9.92,15.83,28.67A10.21,10.21,0,0,1,171.22,233.59Z" fill="#ffbc0e"></path><path d="M171.22,234.71a1,1,0,0,1-.34-.05A86.66,86.66,0,0,1,152,225.24a85.32,85.32,0,0,1-8.25-6.19,1.07,1.07,0,0,1-.28-.41l-9.12-24c-1.06-1.18-7.58-8.63-7.18-14.54a13.45,13.45,0,0,1,6.21-9.83c1.78-1.07,3.44-1.36,4.69-.82,1.47.64,4.26,6,6.31,10.26,1.32-3.82,2.68-5.76,4.31-6.21a3.24,3.24,0,0,1,3.14,1c1.8,1.7-.54,10.15-2.2,15.34l21.1,38.2a11.24,11.24,0,0,1,1.48,5.55v.12a1,1,0,0,1-1,1Zm-26-17a83.14,83.14,0,0,0,7.85,5.88,84.39,84.39,0,0,0,17,8.68A9.34,9.34,0,0,0,169,229l-21.32-38.6a1,1,0,0,1-.07-.79c1.86-5.75,3.44-12.64,2.82-13.72-.71-.65-1.08-.55-1.2-.52-.52.15-1.93,1.15-3.69,7.32a1,1,0,0,1-1.87.14c-2.36-5.12-5.48-11-6.42-11.61a3.63,3.63,0,0,0-2.82.72,11.24,11.24,0,0,0-5.25,8.25c-.37,5.43,6.71,13.11,6.78,13.18a1.15,1.15,0,0,1,.21.33Z" fill="#093f68"></path><circle cx="197.8" cy="114.12" r="52.77" fill="#ffbc0e"></circle><path d="M197.8,167.89a53.77,53.77,0,1,1,53.77-53.77A53.83,53.83,0,0,1,197.8,167.89Zm0-105.54a51.77,51.77,0,1,0,51.77,51.77A51.82,51.82,0,0,0,197.8,62.35Z" fill="#093f68"></path><ellipse cx="182.74" cy="99.51" rx="6.91" ry="8.52" fill="#093f68"></ellipse><ellipse cx="212.86" cy="99.51" rx="6.91" ry="8.52" fill="#093f68"></ellipse><path d="M162.47,119.32a36.06,36.06,0,0,0,70.66,0" fill="#ffbc0e"></path><path d="M197.8,149.66a37.65,37.65,0,0,1-36.8-30,1.5,1.5,0,0,1,2.94-.6,34.56,34.56,0,0,0,67.72,0,1.5,1.5,0,0,1,2.94.6A37.67,37.67,0,0,1,197.8,149.66Z" fill="#093f68"></path><path d="M139.52,190.94a1,1,0,0,1-1-.74c-.83-3-.58-5.29.74-6.85,1.89-2.25,5.24-1.93,5.38-1.91a1,1,0,1,1-.2,2h0s-2.45-.22-3.66,1.22c-.86,1-1,2.71-.33,5a1,1,0,0,1-.7,1.23A1.27,1.27,0,0,1,139.52,190.94Z" fill="#093f68"></path><path d="M200,239.65a1,1,0,0,1-1-1V206.07a1,1,0,0,1,2,0v32.58A1,1,0,0,1,200,239.65Z" fill="#093f68"></path><path d="M216.57,227.79a1,1,0,0,1-.55-.16l-6.46-4.24a1,1,0,0,1-.45-.83V209.64a1,1,0,0,1,1-1H223a1,1,0,0,1,1,1v12.92a1,1,0,0,1-.45.83l-6.46,4.24A1,1,0,0,1,216.57,227.79ZM211.11,222l5.46,3.58L222,222V210.64H211.11Zm11.91.54h0Z" fill="#093f68"></path></svg>