<?xml version="1.0" encoding="UTF-8" standalone="no"?>
<svg
   xmlns:dc="http://purl.org/dc/elements/1.1/"
   xmlns:cc="http://creativecommons.org/ns#"
   xmlns:rdf="http://www.w3.org/1999/02/22-rdf-syntax-ns#"
   xmlns:svg="http://www.w3.org/2000/svg"
   xmlns="http://www.w3.org/2000/svg"
   xmlns:sodipodi="http://sodipodi.sourceforge.net/DTD/sodipodi-0.dtd"
   xmlns:inkscape="http://www.inkscape.org/namespaces/inkscape"
   viewBox="0 0 394.08866 331.26069"
   width="400"
   height="337.88589"
   class="illustration styles_illustrationTablet__1DWOa"
   version="1.1"
   id="svg77"
   sodipodi:docname="news.svg"
   inkscape:version="1.0 (4035a4f, 2020-05-01)">
  <metadata
     id="metadata83">
    <rdf:RDF>
      <cc:Work
         rdf:about="">
        <dc:format>image/svg+xml</dc:format>
        <dc:type
           rdf:resource="http://purl.org/dc/dcmitype/StillImage" />
      </cc:Work>
    </rdf:RDF>
  </metadata>
  <defs
     id="defs81" />
  <sodipodi:namedview
     inkscape:document-rotation="0"
     pagecolor="#ffffff"
     bordercolor="#666666"
     borderopacity="1"
     objecttolerance="10"
     gridtolerance="10"
     guidetolerance="10"
     inkscape:pageopacity="0"
     inkscape:pageshadow="2"
     inkscape:window-width="1680"
     inkscape:window-height="959"
     id="namedview79"
     showgrid="false"
     inkscape:zoom="1.8423646"
     inkscape:cx="143.4677"
     inkscape:cy="141.63048"
     inkscape:window-x="0"
     inkscape:window-y="23"
     inkscape:window-maximized="1"
     inkscape:current-layer="svg77" />
  <g
     id="g189"
     transform="matrix(2.2614981,0,0,2.2614981,0,1.2631055)">
    <path
       d="M 157.35,145.46108 H 16.9 A 15.9,15.9 0 0 1 1,129.56108 V 0.26108374 H 141.46 V 129.56108 a 15.89,15.89 0 0 0 15.89,15.9 z"
       fill="#ffffff"
       id="path10" />
    <path
       d="M 157.35,146.46108 H 16.9 A 16.92,16.92 0 0 1 0,129.56108 V 0.26108374 a 1,1 0 0 1 1,-1 h 140.46 a 1,1 0 0 1 1,1 V 129.56108 a 14.91,14.91 0 0 0 14.89,14.9 1,1 0 0 1 0,2 z M 2,1.2610837 V 129.56108 a 14.92,14.92 0 0 0 14.9,14.9 h 132.49 a 16.91,16.91 0 0 1 -8.93,-14.9 V 1.2610837 Z"
       fill="#093f68"
       id="path12" />
    <path
       d="m 26.45696,61.412694 4.87126,-1.12731 4.54304,19.63118 a 2.5,2.5 0 0 1 -1.87197,2.99929 v 0 A 2.5,2.5 0 0 1 31,81.043874 Z"
       fill="#093f68"
       id="path14" />
    <path
       d="m 33.43,83.991084 a 3.51,3.51 0 0 1 -3.41,-2.71 l -4.54,-19.63 a 1,1 0 0 1 0.75,-1.2 l 4.86,-1.13 a 1,1 0 0 1 0.76,0.13 1,1 0 0 1 0.44,0.62 l 4.54,19.63 a 3.5,3.5 0 0 1 -2.61,4.2 v 0 a 3.46,3.46 0 0 1 -0.79,0.09 z m 0.56,-1.07 z m -6.34,-20.75 4.32,18.69 a 1.49,1.49 0 0 0 1.79,1.12 v 0 a 1.51,1.51 0 0 0 1.13,-1.8 l -4.32,-18.65 z"
       fill="#093f68"
       id="path16" />
    <circle
       cx="65.620003"
       cy="50.931091"
       r="7.1599998"
       fill="#eb6e64"
       id="circle18" />
    <path
       d="m 65.6,59.101084 a 8.16,8.16 0 1 1 8.12,-9.1 v 0 a 8.17,8.17 0 0 1 -7.17,9 7.69,7.69 0 0 1 -0.95,0.1 z m 0,-14.32 a 5.74,5.74 0 0 0 -0.71,0 6.16,6.16 0 1 0 0.71,0 z"
       fill="#093f68"
       id="path20" />
    <path
       d="m 64.01,30.361084 4.7,41 c 0,0 -14.55,-6.69 -22.66,-5.76 l -17.66,2 a 12.320374,12.320374 0 1 1 -2.81,-24.48 l 17.66,-2 c 8.11,-0.95 20.77,-10.76 20.77,-10.76 z"
       fill="#eb6e64"
       id="path22" />
    <path
       d="m 68.71,72.341084 a 1.06,1.06 0 0 1 -0.42,-0.09 c -0.14,-0.06 -14.39,-6.56 -22.13,-5.68 l -17.66,2 a 13.32,13.32 0 1 1 -3,-26.47 l 17.66,-2 c 7.73,-0.89 20.14,-10.44 20.27,-10.53 a 1,1 0 0 1 1,-0.14 1,1 0 0 1 0.6,0.81 l 4.71,41 a 1,1 0 0 1 -0.41,0.92 1,1 0 0 1 -0.62,0.18 z m -21,-7.85 c 6.74,0 16.09,3.66 19.82,5.24 l -4.31,-37.53 c -3.57,2.6 -13.1,9.11 -19.86,9.89 l -17.66,2 a 11.32,11.32 0 1 0 2.59,22.49 l 17.66,-2 a 16.58,16.58 0 0 1 1.75,-0.09 z"
       fill="#093f68"
       id="path24" />
    <path
       d="m 33.13,42.261084 2.81,24.48 -7.54,0.87 a 12.320374,12.320374 0 0 1 -2.81,-24.48 z"
       fill="#eb6e64"
       id="path26" />
    <path
       d="m 26.96,68.691084 a 13.32,13.32 0 0 1 -13.21,-11.83 13.34,13.34 0 0 1 11.72,-14.76 l 7.53,-0.86 a 1,1 0 0 1 1.11,0.88 l 2.81,24.48 a 1,1 0 0 1 -0.88,1.11 l -7.53,0.86 a 13.56,13.56 0 0 1 -1.55,0.12 z m 5.28,-25.32 -6.55,0.75 a 11.33,11.33 0 0 0 -9.95,12.54 11.34,11.34 0 0 0 12.54,10 l 6.54,-0.76 z"
       fill="#093f68"
       id="path28" />
    <path
       d="m 22.3,51.281084 a 1,1 0 0 1 -1,-0.89 1,1 0 0 1 0.88,-1.1 l 6,-0.67 a 1,1 0 0 1 1.1,0.88 1,1 0 0 1 -0.88,1.1 l -6,0.68 z"
       fill="#093f68"
       id="path30" />
    <path
       d="m 22.62,55.441084 a 1.0015114,1.0015114 0 0 1 -0.11,-2 l 6,-0.67 a 1,1 0 0 1 1.11,0.88 1,1 0 0 1 -0.89,1.11 l -6,0.67 z"
       fill="#093f68"
       id="path32" />
    <path
       d="m 71.13,38.071084 a 1,1 0 0 1 -0.89,-0.54 1,1 0 0 1 0.42,-1.34 l 5.36,-2.79 a 1.0018483,1.0018483 0 0 1 0.92,1.78 l -5.35,2.78 a 1,1 0 0 1 -0.46,0.11 z"
       fill="#dfeaef"
       id="path34" />
    <path
       d="m 76.46,49.861084 a 1.0017984,1.0017984 0 0 1 -0.12,-2 l 7.3,-0.88 a 1,1 0 0 1 1.11,0.87 1,1 0 0 1 -0.87,1.12 l -7.3,0.88 z"
       fill="#dfeaef"
       id="path36" />
    <path
       d="m 81.13,65.761084 a 1,1 0 0 1 -0.4,-0.08 l -6.42,-2.82 a 1,1 0 0 1 0.8,-1.83 l 6.47,2.86 a 1,1 0 0 1 -0.41,1.91 z"
       fill="#dfeaef"
       id="path38" />
    <path
       d="m 141.46,79.571084 h 31.79 v 49.999996 a 15.9,15.9 0 0 1 -15.9,15.9 v 0 a 15.9,15.9 0 0 1 -15.9,-15.9 V 79.571084 Z"
       fill="#eb6e64"
       id="path48" />
    <path
       d="m 157.36,146.46108 a 16.92,16.92 0 0 1 -16.9,-16.9 V 79.561084 a 1,1 0 0 1 1,-1 h 31.8 a 1,1 0 0 1 1,1 v 49.999996 a 16.92,16.92 0 0 1 -16.9,16.9 z m -14.9,-65.889996 v 48.999996 a 14.9,14.9 0 1 0 29.8,0 V 80.571084 Z"
       fill="#093f68"
       id="path50" />
    <path
       d="M 127.92,34.111084 H 94.35 a 1,1 0 0 1 0,-2 h 33.57 a 1,1 0 0 1 0,2 z"
       fill="#093f68"
       id="path52" />
    <path
       d="M 127.92,49.141084 H 94.35 a 1,1 0 0 1 0,-2 h 33.57 a 1,1 0 0 1 0,2 z"
       fill="#093f68"
       id="path54" />
    <path
       d="M 127.92,64.171084 H 94.35 a 1,1 0 1 1 0,-2 h 33.57 a 1,1 0 1 1 0,2 z"
       fill="#093f68"
       id="path56" />
    <path
       d="M 127.92,79.201084 H 94.35 a 1,1 0 0 1 0,-2 h 33.57 a 1,1 0 0 1 0,2 z"
       fill="#093f68"
       id="path58" />
    <path
       d="M 127.92,95.701084 H 74.56 a 1,1 0 0 1 0,-2 h 53.36 a 1,1 0 0 1 0,2 z"
       fill="#093f68"
       id="path60" />
    <path
       d="M 58.57,95.701084 H 14.46 a 1,1 0 0 1 0,-2 h 44.11 a 1,1 0 0 1 0,2 z"
       fill="#093f68"
       id="path62" />
    <path
       d="M 127.92,109.95108 H 14.66 a 1,1 0 0 1 0,-2 h 113.26 a 1,1 0 0 1 0,2 z"
       fill="#093f68"
       id="path64" />
    <path
       d="M 111.58,124.21108 H 14.66 a 1,1 0 0 1 0,-2 h 96.92 a 1,1 0 0 1 0,2 z"
       fill="#093f68"
       id="path66" />
    <path
       d="m 161.99,98.591084 h -19.86 a 1,1 0 0 1 0,-2 h 19.89 a 1,1 0 0 1 0,2 z"
       fill="#093f68"
       id="path68" />
    <path
       d="m 161.99,110.98108 h -19.86 a 1,1 0 0 1 0,-2 h 19.89 a 1,1 0 0 1 0,2 z"
       fill="#093f68"
       id="path70" />
    <path
       d="m 161.99,123.37108 h -19.86 a 1,1 0 0 1 0,-2 h 19.89 a 1,1 0 0 1 0,2 z"
       fill="#093f68"
       id="path72" />
    <path
       d="M 127.92,23.701084 H 12.77 a 1,1 0 0 1 0,-2 h 115.15 a 1,1 0 0 1 0,2 z"
       fill="#dfeaef"
       id="path74" />
    <text
       id="text156"
       y="17.180389"
       x="36.712582"
       style="font-style:normal;font-weight:normal;font-size:14.6379px;line-height:1.25;font-family:sans-serif;fill:#093f68;fill-opacity:1;stroke:none;stroke-width:0.365949"
       xml:space="preserve"><tspan
         style="fill:#093f68;fill-opacity:1;stroke-width:0.365949"
         y="17.180389"
         x="36.712582"
         id="tspan154"
         sodipodi:role="line">Bytecode</tspan></text>
  </g>
</svg>
